{
    "asset" : {
        "generator" : "Khronos glTF Blender I/O v1.3.48",
        "version" : "2.0"
    },
    "scene" : 0,
    "scenes" : [
        {
            "name" : "Scene",
            "nodes" : [
                0
            ]
        }
    ],
    "nodes" : [
        {
            "mesh" : 0,
            "name" : "ship_light_8angles",
            "translation" : [
                -0.7150975465774536,
                0,
                0.014456731267273426
            ]
        }
    ],
    "materials" : [
        {
            "emissiveFactor" : [
                0,
                0,
                0
            ],
            "name" : "wood",
            "pbrMetallicRoughness" : {
                "baseColorFactor" : [
                    0.729411780834198,
                    0.4627451002597809,
                    0.27843138575553894,
                    1
                ],
                "metallicFactor" : 0.25,
                "roughnessFactor" : 0.8500000238418579
            }
        },
        {
            "emissiveFactor" : [
                0,
                0,
                0
            ],
            "name" : "woodDark",
            "pbrMetallicRoughness" : {
                "baseColorFactor" : [
                    0.5215686559677124,
                    0.3294117748737335,
                    0.19607843458652496,
                    1
                ],
                "metallicFactor" : 0.25,
                "roughnessFactor" : 0.8500000238418579
            }
        },
        {
            "emissiveFactor" : [
                0,
                0,
                0
            ],
            "name" : "iron",
            "pbrMetallicRoughness" : {
                "baseColorFactor" : [
                    0.3764705955982208,
                    0.3764705955982208,
                    0.3764705955982208,
                    1
                ],
                "metallicFactor" : 0.25,
                "roughnessFactor" : 0.8500000238418579
            }
        },
        {
            "emissiveFactor" : [
                0,
                0,
                0
            ],
            "name" : "window",
            "pbrMetallicRoughness" : {
                "baseColorFactor" : [
                    0.6627451181411743,
                    0.7372549176216125,
                    0.7686274647712708,
                    1
                ],
                "metallicFactor" : 0.25,
                "roughnessFactor" : 0.8500000238418579
            }
        },
        {
            "emissiveFactor" : [
                0,
                0,
                0
            ],
            "name" : "textile",
            "pbrMetallicRoughness" : {
                "baseColorFactor" : [
                    0.8196078538894653,
                    0.7529411911964417,
                    0.6705882549285889,
                    1
                ],
                "metallicFactor" : 0.25,
                "roughnessFactor" : 0.8500000238418579
            }
        },
        {
            "emissiveFactor" : [
                0,
                0,
                0
            ],
            "name" : "_defaultMat",
            "pbrMetallicRoughness" : {
                "baseColorFactor" : [
                    1,
                    1,
                    1,
                    1
                ],
                "metallicFactor" : 0,
                "roughnessFactor" : 0.5
            }
        }
    ],
    "meshes" : [
        {
            "name" : "ship_light_8angles",
            "primitives" : [
                {
                    "attributes" : {
                        "POSITION" : 0,
                        "NORMAL" : 1,
                        "TEXCOORD_0" : 2
                    },
                    "indices" : 3,
                    "material" : 0
                },
                {
                    "attributes" : {
                        "POSITION" : 4,
                        "NORMAL" : 5,
                        "TEXCOORD_0" : 6
                    },
                    "indices" : 7,
                    "material" : 1
                },
                {
                    "attributes" : {
                        "POSITION" : 8,
                        "NORMAL" : 9,
                        "TEXCOORD_0" : 10
                    },
                    "indices" : 11,
                    "material" : 2
                },
                {
                    "attributes" : {
                        "POSITION" : 12,
                        "NORMAL" : 13,
                        "TEXCOORD_0" : 14
                    },
                    "indices" : 15,
                    "material" : 3
                },
                {
                    "attributes" : {
                        "POSITION" : 16,
                        "NORMAL" : 17,
                        "TEXCOORD_0" : 18
                    },
                    "indices" : 19,
                    "material" : 4
                },
                {
                    "attributes" : {
                        "POSITION" : 20,
                        "NORMAL" : 21,
                        "TEXCOORD_0" : 22
                    },
                    "indices" : 23,
                    "material" : 5
                }
            ]
        }
    ],
    "accessors" : [
        {
            "bufferView" : 0,
            "componentType" : 5126,
            "count" : 4486,
            "max" : [
                1.4250975847244263,
                6.545872688293457,
                3.199540615081787
            ],
            "min" : [
                -1.4250975847244263,
                -1.804778527019556e-16,
                -4.849648952484131
            ],
            "type" : "VEC3"
        },
        {
            "bufferView" : 1,
            "componentType" : 5126,
            "count" : 4486,
            "type" : "VEC3"
        },
        {
            "bufferView" : 2,
            "componentType" : 5126,
            "count" : 4486,
            "type" : "VEC2"
        },
        {
            "bufferView" : 3,
            "componentType" : 5123,
            "count" : 5949,
            "type" : "SCALAR"
        },
        {
            "bufferView" : 4,
            "componentType" : 5126,
            "count" : 879,
            "max" : [
                1.2250727415084839,
                2.314490556716919,
                3.070770740509033
            ],
            "min" : [
                -1.2250727415084839,
                1.0573984384536743,
                -0.6167500019073486
            ],
            "type" : "VEC3"
        },
        {
            "bufferView" : 5,
            "componentType" : 5126,
            "count" : 879,
            "type" : "VEC3"
        },
        {
            "bufferView" : 6,
            "componentType" : 5126,
            "count" : 879,
            "type" : "VEC2"
        },
        {
            "bufferView" : 7,
            "componentType" : 5123,
            "count" : 1254,
            "type" : "SCALAR"
        },
        {
            "bufferView" : 8,
            "componentType" : 5126,
            "count" : 576,
            "max" : [
                0.14164699614048004,
                3.1257412433624268,
                2.6888554096221924
            ],
            "min" : [
                -0.14164699614048004,
                1.2773983478546143,
                -2.6767499446868896
            ],
            "type" : "VEC3"
        },
        {
            "bufferView" : 9,
            "componentType" : 5126,
            "count" : 576,
            "type" : "VEC3"
        },
        {
            "bufferView" : 10,
            "componentType" : 5126,
            "count" : 576,
            "type" : "VEC2"
        },
        {
            "bufferView" : 11,
            "componentType" : 5123,
            "count" : 864,
            "type" : "SCALAR"
        },
        {
            "bufferView" : 12,
            "componentType" : 5126,
            "count" : 93,
            "max" : [
                1.150072693824768,
                2.1477649211883545,
                2.440375328063965
            ],
            "min" : [
                -1.150072693824768,
                1.7202647924423218,
                1.5253753662109375
            ],
            "type" : "VEC3"
        },
        {
            "bufferView" : 13,
            "componentType" : 5126,
            "count" : 93,
            "type" : "VEC3"
        },
        {
            "bufferView" : 14,
            "componentType" : 5126,
            "count" : 93,
            "type" : "VEC2"
        },
        {
            "bufferView" : 15,
            "componentType" : 5123,
            "count" : 156,
            "type" : "SCALAR"
        },
        {
            "bufferView" : 16,
            "componentType" : 5126,
            "count" : 840,
            "max" : [
                0.033205002546310425,
                6.500872611999512,
                3.2479171752929688
            ],
            "min" : [
                -0.023099124431610107,
                4.03535270690918,
                -2.4926087856292725
            ],
            "type" : "VEC3"
        },
        {
            "bufferView" : 17,
            "componentType" : 5126,
            "count" : 840,
            "type" : "VEC3"
        },
        {
            "bufferView" : 18,
            "componentType" : 5126,
            "count" : 840,
            "type" : "VEC2"
        },
        {
            "bufferView" : 19,
            "componentType" : 5123,
            "count" : 1296,
            "type" : "SCALAR"
        },
        {
            "bufferView" : 20,
            "componentType" : 5126,
            "count" : 3,
            "max" : [
                0.20948800444602966,
                1.3764255046844482,
                -4.139648914337158
            ],
            "min" : [
                -0.20948800444602966,
                1.3025588989257812,
                -4.139648914337158
            ],
            "type" : "VEC3"
        },
        {
            "bufferView" : 21,
            "componentType" : 5126,
            "count" : 3,
            "type" : "VEC3"
        },
        {
            "bufferView" : 22,
            "componentType" : 5126,
            "count" : 3,
            "type" : "VEC2"
        },
        {
            "bufferView" : 23,
            "componentType" : 5123,
            "count" : 3,
            "type" : "SCALAR"
        }
    ],
    "bufferViews" : [
        {
            "buffer" : 0,
            "byteLength" : 53832,
            "byteOffset" : 0
        },
        {
            "buffer" : 0,
            "byteLength" : 53832,
            "byteOffset" : 53832
        },
        {
            "buffer" : 0,
            "byteLength" : 35888,
            "byteOffset" : 107664
        },
        {
            "buffer" : 0,
            "byteLength" : 11898,
            "byteOffset" : 143552
        },
        {
            "buffer" : 0,
            "byteLength" : 10548,
            "byteOffset" : 155452
        },
        {
            "buffer" : 0,
            "byteLength" : 10548,
            "byteOffset" : 166000
        },
        {
            "buffer" : 0,
            "byteLength" : 7032,
            "byteOffset" : 176548
        },
        {
            "buffer" : 0,
            "byteLength" : 2508,
            "byteOffset" : 183580
        },
        {
            "buffer" : 0,
            "byteLength" : 6912,
            "byteOffset" : 186088
        },
        {
            "buffer" : 0,
            "byteLength" : 6912,
            "byteOffset" : 193000
        },
        {
            "buffer" : 0,
            "byteLength" : 4608,
            "byteOffset" : 199912
        },
        {
            "buffer" : 0,
            "byteLength" : 1728,
            "byteOffset" : 204520
        },
        {
            "buffer" : 0,
            "byteLength" : 1116,
            "byteOffset" : 206248
        },
        {
            "buffer" : 0,
            "byteLength" : 1116,
            "byteOffset" : 207364
        },
        {
            "buffer" : 0,
            "byteLength" : 744,
            "byteOffset" : 208480
        },
        {
            "buffer" : 0,
            "byteLength" : 312,
            "byteOffset" : 209224
        },
        {
            "buffer" : 0,
            "byteLength" : 10080,
            "byteOffset" : 209536
        },
        {
            "buffer" : 0,
            "byteLength" : 10080,
            "byteOffset" : 219616
        },
        {
            "buffer" : 0,
            "byteLength" : 6720,
            "byteOffset" : 229696
        },
        {
            "buffer" : 0,
            "byteLength" : 2592,
            "byteOffset" : 236416
        },
        {
            "buffer" : 0,
            "byteLength" : 36,
            "byteOffset" : 239008
        },
        {
            "buffer" : 0,
            "byteLength" : 36,
            "byteOffset" : 239044
        },
        {
            "buffer" : 0,
            "byteLength" : 24,
            "byteOffset" : 239080
        },
        {
            "buffer" : 0,
            "byteLength" : 6,
            "byteOffset" : 239104
        }
    ],
    "buffers" : [
        {
            "byteLength" : 239112,
            "uri" : "data:application/octet-stream;base64,"
        }
    ]
}
